<?xml version="1.0" encoding="UTF-8"?>
<svg id="Layer_2" xmlns="http://www.w3.org/2000/svg" viewBox="0 0 83 83">
  <defs>
    <style>
      .cls-1 {
        fill: #5273b8;
        stroke: #395da0;
      }

      .cls-1, .cls-2, .cls-3 {
        stroke-miterlimit: 10;
      }

      .cls-4 {
        fill: #1dad51;
      }

      .cls-2 {
        fill: none;
        stroke: #2475b5;
        stroke-width: 11px;
      }

      .cls-3 {
        fill: #1bad50;
        stroke: #3d582d;
      }
    </style>
  </defs>
  <g id="Layer_3">
    <rect class="cls-2" x="5.5" y="5.5" width="72" height="72"/>
    <g>
      <path class="cls-3" d="M68.5,43.63c1-23-16-25-16-25v-5l-6,9,6,9v-4s14-4,16,16-21,22.96-21,22.96v-8.96s20-1,21-14"/>
      <path class="cls-1" d="M14.5,39.37c-1,23,16,25,16,25v5l6-9-6-9v4s-14,4-16-16,21-22.96,21-22.96v8.96s-20,1-21,14"/>
      <path class="cls-4" d="M40.95,38.9l-.79-1.15-6.79,5.94s-2.55-11.2,6.79-11.2,9.33-1.37,9.33-1.37v5.69c0,3.08-.87,6.38-3.29,8.28-6.89,5.39-11.13.3-11.13.3l-2.67,4.24h-1.41s4.43-6.25,5.77-7.64c1.16-1.2,4.18-3.09,4.18-3.09Z"/>
    </g>
  </g>
</svg>