<?xml version="1.0" encoding="UTF-8"?>
<svg id="Layer_2" xmlns="http://www.w3.org/2000/svg" viewBox="0 0 444.04 56.96">
  <defs>
    <style>
      .cls-1 {
        fill: #1dad51;
      }

      .cls-2 {
        fill: #25abe2;
      }

      .cls-3 {
        fill: #2474b5;
      }
    </style>
  </defs>
  <g id="logo">
    <polygon class="cls-3" points="0 .5 0 7.92 12.25 8.09 12.25 44.5 20.22 44.5 20.22 8 32 8 32 .5 0 .5"/>
    <path class="cls-3" d="M54.67,14.44c-1.92-1.4-4.44-2.44-7.67-2.44-3.57,0-6.25,1.28-8.22,2.92-3.11,2.6-4.78,6.54-4.78,10.59v5.27c-.05,4.41,1.88,8.69,5.45,11.28,1.92,1.4,4.44,2.44,7.67,2.44,3.57,0,6.25-1.28,8.22-2.92,3.11-2.6,4.78-6.54,4.78-10.59v-5.27c.05-4.41-1.88-8.69-5.45-11.28ZM52.5,30.02c0,2.25-.71,4.43-2.03,5.87-.84.91-1.97,1.61-3.49,1.61-1.37,0-2.44-.57-3.26-1.35-1.51-1.44-2.33-3.81-2.31-6.25v-2.92c0-2.25.71-4.43,2.03-5.87.84-.91,1.97-1.61,3.49-1.61,1.37,0,2.44.57,3.26,1.35,1.51,1.44,2.33,3.81,2.31,6.25v2.92Z"/>
    <path class="cls-3" d="M65,36c0,.08,0,.17,0,.25.06,3.87,1.81,6.06,3.55,7.28,1.44,1.01,3.19,1.47,4.95,1.47h4.5s0-7.75,0-7.75l-2.84-.14c-1.21-.06-2.16-1.06-2.16-2.27v-15.71h5v-6.74h-4.21V3.28h-8.79v9.72h-3v6.13h3v16.87Z"/>
    <path class="cls-3" d="M106.22,44.66s-.22-10.66-.22-21.66c0-3.38-1.12-5.77-2.53-7.44-1.97-2.34-4.96-3.56-8.01-3.56h-3.08c-4.07,0-7.99,1.75-10.57,4.89-.54.66-.81,1.11-.81,1.11l6,4s2-2,4-2c1,0,7-1.16,7,2v3h-8.71s-8.29,0-9.29,8,4,10,6,11,11,1,12-1v2l8.22-.34ZM95,37c-.3,0-4.43.36-6,0-1.22-.28-2-1.13-2-2,0-3,2-3,2-3h9c0,2,0,5-3,5Z"/>
    <path class="cls-3" d="M113,0h7.76v35.23c0,.95.75,1.73,1.7,1.77h2.54s0,7.94,0,7.94h-4.64c-3.97.06-7.22-3.19-7.24-7.16l-.12-37.79Z"/>
    <path class="cls-2" d="M176.84.21h7.76v35.23c0,.95.75,1.73,1.7,1.77h2.54s0,7.94,0,7.94h-4.64c-3.97.06-7.22-3.19-7.24-7.16l-.12-37.79Z"/>
    <path class="cls-2" d="M247.84,44.4s-.22-10.66-.22-21.66c0-3.38-2.12-11.24-13.12-11.24-8,0-13,6-13,6l7,5s0-3,7-3c5,0,4.12,5.24,4.12,5.24h-8.71s-9.29,0-10.29,8,4,10,6,11,9.88,2.76,13-1v2l8.22-.34ZM236.62,36.74c-.3,0-4.43.36-6,0-1.22-.28-2-1.13-2-2,0-3,2-3,2-3h9c0,2,0,5-3,5Z"/>
    <path class="cls-2" d="M151,30.71c0,7.07,9,6,9,6,4,0,6-6,6-6h8.87s-2.15,10.57-10.33,13.26c-1.18.39-2.42.53-3.67.53h-4.97c-1.68,0-3.34-.31-4.9-.95-3.37-1.39-8.36-4.65-9.01-11.84v-8.21s0-10.5,0-10.5c.65-7.19,5.64-10.45,9.01-11.84,1.55-.64,3.22-.95,4.9-.95h4.97c1.24,0,2.49.14,3.67.53,8.18,2.69,10.33,13.26,10.33,13.26h-8.87s-2-6-6-6c0,0-9-1.07-9,6v9s0,.71,0,7.71Z"/>
    <path class="cls-2" d="M206,12c-6.5-.5-10.25,2.25-12.38,5.12-1.81,2.45-2.64,5.49-2.55,8.53l.26,8.66c.66,4.68,4.04,8.3,7.66,9.68,2.18.83,3.7,1,6,1,.73,0,1.73-.13,2.8-.35,2.76-.56,5.35-1.76,7.62-3.45l2.58-2.2-5-5c-2,3-8,3-8,3-5,0-6-5-6-5h19.39v-7.14s.61-11.86-12.39-12.86ZM200,25v-.63c.03-1.32.61-2.61,1.69-3.38.69-.49,1.5-.86,2.37-.95.55-.06,1.2-.05,1.95-.05,4,0,4.23,5,4.23,5h-10.23Z"/>
    <path class="cls-1" d="M401.5,12.5c-15,0-14,16-14,16,0,9,4,16,14.03,16.43s13-6,13-6l-6.03-4.43c-2,3-7,3-7,3-5,0-5.97-5.57-5.97-5.57h19.39v-7.14s-.39-12.3-13.42-12.3ZM395.5,24.93c.02-1.32.89-5.43,6-5.43s5.26,5.43,5.26,5.43h-11.26Z"/>
    <path class="cls-2" d="M269,13c5.42,0,8.19,2.23,9.6,5.19.97,2.04,1.4,4.3,1.41,6.56l.09,20h-8.1v-19.74s0-5-5-5-5.15,4.93-5.15,4.93v19.81h-7.85V13h7v2s3-2,8-2Z"/>
    <path class="cls-1" d="M296,0h10.09l7.91,14,8.28-14h9.8l-13.07,22s13.85,22.87,13.93,22.93-9.8,0-9.8,0l-9.13-14.93-8.87,14.74h-9.69l14.06-22.31-13.49-22.43Z"/>
    <path class="cls-1" d="M359.98,22.43c-.02-8.57-6.98-10.43-10.33-10.56-5.65-.21-8.31,3.12-8.31,3.12v-2.25h-8.41v44.2h8.41v-13.95s2.66,2,8.95,1.93c4.14-.04,6.57-2.52,7.96-4.99,1.2-2.14,1.75-4.58,1.75-7.04,0-2,0-5.45-.02-10.47ZM352.49,30.26c0,2.08-.66,4.11-1.88,5.44-.78.84-1.83,1.5-3.24,1.5-1.27,0-2.26-.53-3.02-1.25-1.4-1.33-2.17-3.53-2.15-5.8v-2.71c0-2.08.66-4.11,1.88-5.44.78-.84,1.83-1.5,3.24-1.5,1.27,0,2.26.53,3.02,1.25,1.4,1.33,2.17,3.53,2.15,5.8v2.71Z"/>
    <path class="cls-1" d="M382,22c-6.5-4.5-8.6,2.47-8.6,2.47v20.46h-8.4V13h8.5v1.78s3.5-2.78,7.5-2.78c5,0,7,4,7,4l-6,6Z"/>
    <path class="cls-1" d="M419,18c1-2,6-7,14-6s11,5,11,5l-5.5,5.5s-5-3-7-3c-3,0-5,1.42-5,3,0,2,1.24,1.92,8,2,5.76.07,10,5,9.5,10.73-.34,3.89-3,9.77-12.38,9.71-10.62-.07-15.62-5.93-15.62-5.93l5-5s2,2,6,3c2.91.73,9,1.61,9-2,0-3-4-2-9-3-2.94-.59-7.74-3.21-9-7-1-3,1-7,1-7Z"/>
  </g>
</svg>